# xmcd CD database file
#
# Track frame offsets:
#	150
#	13713
#	25620
#	43355
#	56647
#	68080
#	79966
#	92135
#	105976
#	120388
#	134391
#	148123
#	161617
#	172808
#	186771
#	201041
#	216952
#	229873
#
# Disc length: 3219 seconds
#
# Revision: 0
# Processed by: cddbd v1.5.1PL0 Copyright (c) Steve Scherf et al.
# Submitted via: CDex 1.60beta1-cs1
#
DISCID=f60c9112
DTITLE=Various Artist - The greatest Era in Jazz from Swing to Bebop CD1
DYEAR=1900
DGENRE=Jazz
TTITLE0=Sarah Vaughan - Ain't Misbehavin'
TTITLE1=Anita O'Day - Are You Livin' Old Man?
TTITLE2=Miles Davis - 52Nd Street Theme
TTITLE3=Mel Tormé - Gone With The Wind
TTITLE4=Judy Garland - For Me And My Gal
TTITLE5=Tony Bennet - Cold Cold Heart
TTITLE6=Nat King Cole - Destination Moon
TTITLE7=J. Neal Montgomery And His Orchestra - Auburn Ave. Stomp
TTITLE8=Big Bill Broonzy - Baby Please Don't Go
TTITLE9=Buddy Rich - Desperade Desmond
TTITLE10=Art Tatum - Deep Purple
TTITLE11=Peggy Lee - Golden Earrings
TTITLE12=Ella Fitzgerald - Flying Home
TTITLE13=Lionel Hampton - Cobb's Idea
TTITLE14=J. C. Higginbotham - Give Me Your Telephone Number
TTITLE15=Louis Armstrong - 'C' Jam Blues
TTITLE16=Eddie Condon - (You're Some) Pretty Doll
TTITLE17=Henry 'Red' Allen - (Is It) Love Or Infatuation?
EXTD=
EXTT0=
EXTT1=
EXTT2=
EXTT3=
EXTT4=
EXTT5=
EXTT6=
EXTT7=
EXTT8=
EXTT9=
EXTT10=
EXTT11=
EXTT12=
EXTT13=
EXTT14=
EXTT15=
EXTT16=
EXTT17=
PLAYORDER=
